# xmcd
#
# Track frame offsets: 
#        150
#        15452
#        34090
#        53622
#        84147
#        100045
#        125972
#        150002
#        184695
#        206445
#        227952
#        253372
#        283940
#
# Disc length: 4394 seconds
#
# Revision: 0
# Processed by: cddbd v1.5.2PL0 Copyright (c) Steve Scherf et al.
# Submitted via: ExactAudioCopyFreeDBPlugin 1.0
#
DISCID=a411280d
DTITLE=Kris Lager Band - Roots Revival
DYEAR=1900
DGENRE=
TTITLE0=Turn Me Loose
TTITLE1=Travelin' Jones
TTITLE2=Since I've Been Gone
TTITLE3=Carelessly
TTITLE4=80 On 80
TTITLE5=Feelin's Gone
TTITLE6=Rain Song
TTITLE7=I Don't Care Anymore
TTITLE8=I Feel Alive
TTITLE9=Killin Time
TTITLE10=Keep On Movin'
TTITLE11=Rollin' Stone
TTITLE12=When The Night Starts Falling
EXTD=
EXTT0=
EXTT1=
EXTT2=
EXTT3=
EXTT4=
EXTT5=
EXTT6=
EXTT7=
EXTT8=
EXTT9=
EXTT10=
EXTT11=
EXTT12=
PLAYORDER=
